GRF_file
version=1
nRows=10
nColumns=2
inDegrees=no
range 1 10
endheader
time	force
1	0.628982042036008
2	2.06502489535922
3	-1.63098940208223
4	0.512426949851805
5	-1.86301149206833
6	-0.522012514745454
7	-0.0526019099538795
8	0.54299634266114
9	-0.914074827259928
10	0.468154420450533
